<?xml version="1.0" encoding="UTF-8" standalone="no"?>
<!-- Created with Inkscape (http://www.inkscape.org/) -->

<svg
   width="50.308327mm"
   height="50.308338mm"
   viewBox="0 0 50.308327 50.30834"
   version="1.1"
   id="svg485"
   xmlns="http://www.w3.org/2000/svg"
   xmlns:svg="http://www.w3.org/2000/svg">
  <defs
     id="defs482">
    <filter
       style="color-interpolation-filters:sRGB"
       id="filter4086"
       x="-0.052737594"
       y="-0.052737575"
       width="1.1054752"
       height="1.1054751">
      <feFlood
         flood-opacity="1"
         flood-color="#FC0"
         result="flood"
         id="feFlood4076" />
      <feComposite
         in="flood"
         in2="SourceGraphic"
         operator="in"
         result="composite1"
         id="feComposite4078" />
      <feGaussianBlur
         in="composite1"
         stdDeviation="1"
         result="blur"
         id="feGaussianBlur4080" />
      <feOffset
         dx="-4.16334e-16"
         dy="1.38778e-16"
         result="offset"
         id="feOffset4082" />
      <feComposite
         in="SourceGraphic"
         in2="offset"
         operator="over"
         result="composite2"
         id="feComposite4084" />
    </filter>
  </defs>
  <g
     id="layer1"
     transform="translate(-77.922844,-115.97772)">
    <rect
       style="opacity:1;fill:#0f2233;fill-opacity:0;stroke-width:2.86499;stroke-linecap:round"
       id="rect1578"
       width="73.712936"
       height="58.558754"
       x="67.468414"
       y="112.78405"
       ry="10.054167" />
    <path
       id="rect1575"
       style="opacity:1;fill:#ffffff;fill-opacity:0.8;stroke-width:2.86499;stroke-linecap:round;filter:url(#filter4086)"
       d="m 90.377014,118.37774 c -5.570003,0 -10.054167,4.48417 -10.054167,10.05417 v 25.4 c 0,5.57 4.484164,10.05417 10.054167,10.05417 h 6.1712 c 0.970563,-0.022 1.338419,-0.73421 1.338419,-1.32395 v -6.43579 c 0,0 -7.271968,1.60882 -8.816516,-3.21789 0,0 -1.158468,-3.21756 -2.863908,-3.8933 0,0 -2.381356,-1.67344 0.160714,-1.64124 0.832575,0.1123 1.627314,0.41853 2.320271,0.89348 0.692954,0.47495 1.265191,1.10583 1.670183,1.84175 0.336679,0.65997 0.804529,1.24432 1.37511,1.71669 0.570548,0.4727 1.231415,0.82359 1.942517,1.03146 0.711134,0.20787 1.457331,0.26847 2.192631,0.17777 0.7353,-0.0907 1.444505,-0.33135 2.083594,-0.7059 0.121955,-1.34344 0.701318,-2.60376 1.641243,-3.57136 -5.79196,-0.67574 -11.648901,-1.51277 -11.648901,-11.77757 -0.06152,-1.1597 0.125074,-2.31901 0.546736,-3.40083 0.421692,-1.08183 1.069105,-2.06159 1.899109,-2.87373 -0.783088,-2.35552 -0.691776,-4.91418 0.257349,-7.20783 0.205136,-0.0664 0.434716,-0.0945 0.682646,-0.0925 2.396653,0.0231 6.493143,2.95641 6.493143,2.95641 4.261016,-1.20175 8.771596,-1.20175 13.032276,0 0,0 4.98769,-3.57181 7.17579,-2.86391 0.96985,2.28915 1.06116,4.85537 0.25735,7.20783 0.85948,0.80095 1.54076,1.77323 2.00091,2.85409 0.45983,1.08086 0.68855,2.24597 0.67025,3.42047 0,10.29698 -6.11421,11.10183 -11.90625,11.77757 0.5821,0.6529 1.02551,1.41754 1.30224,2.24741 0.27645,0.82987 0.38044,1.70747 0.30644,2.57917 v 8.91315 c -0.002,0.21721 0.0484,0.43209 0.14677,0.6258 0.0988,0.19371 0.24263,0.36117 0.41961,0.48731 0.17666,0.12646 0.38418,0.22383 0.59893,0.25373 0.0445,0.005 0.17932,0.0217 0.17932,0.0217 h 3.77082 c 5.57001,0 10.05417,-4.48417 10.05417,-10.05417 v -25.4 c 0,-5.57 -4.48416,-10.05417 -10.05417,-10.05417 z" />
  </g>
</svg>
